<svg version="1.1" id="Layer_1" xmlns="http://www.w3.org/2000/svg" xmlns:xlink="http://www.w3.org/1999/xlink" x="0px" y="0px"
	 width="100%" viewBox="0 0 1878 370" enable-background="new 0 0 1878 370" xml:space="preserve">
<path fill="#111111" opacity="1.000000" stroke="none" 
	d="
M1274.000000,371.000000 
	C849.380432,371.000000 425.260803,371.000000 1.070614,371.000000 
	C1.070614,247.727463 1.070614,124.454880 1.070614,1.091146 
	C627.000000,1.091146 1253.000000,1.091146 1878.965942,1.091146 
	C1878.965942,124.406151 1878.965942,247.703079 1878.965942,371.000000 
	C1677.454590,371.000000 1475.977295,371.000000 1274.000000,371.000000 
M274.602264,186.888504 
	C269.500946,183.108429 264.399658,179.328354 259.079010,175.385727 
	C267.950348,169.208832 274.259888,161.059021 278.434082,151.248840 
	C285.992645,133.484818 286.774994,115.059685 282.672455,96.508545 
	C277.510040,73.164650 263.552032,56.295147 242.145355,45.982681 
	C227.873489,39.107346 212.483429,36.741932 196.630615,36.783100 
	C148.818207,36.907272 101.005249,36.827915 53.192505,36.827915 
	C51.582054,36.827915 49.971603,36.827915 48.183708,36.827915 
	C48.183708,135.526276 48.183708,233.761063 48.183708,332.252319 
	C49.570030,332.341217 50.868423,332.496918 52.166859,332.497253 
	C99.646408,332.509644 147.126053,332.562683 194.605469,332.481232 
	C214.319580,332.447418 233.602768,329.851013 251.908539,321.948425 
	C273.946594,312.434540 290.629944,297.440796 296.249634,273.560577 
	C303.768402,241.610535 297.825714,212.265503 274.602264,186.888504 
M798.631409,210.118668 
	C799.470215,211.536148 800.420044,212.900253 801.131409,214.379044 
	C813.146057,239.358643 824.903748,264.465118 837.209717,289.300079 
	C844.335144,303.679962 854.492371,315.705658 869.056213,323.149445 
	C887.267029,332.457306 907.005066,332.520966 926.635437,332.120209 
	C926.635437,317.439758 926.635437,303.046631 926.635437,288.422302 
	C924.776550,288.539520 923.291199,288.567261 921.822021,288.735809 
	C903.787476,290.804749 888.971313,285.527222 878.976257,269.675140 
	C873.417969,260.859772 867.782715,252.057266 862.864441,242.883209 
	C856.844421,231.654083 851.538635,220.042053 845.896057,208.538513 
	C850.571289,206.970688 855.016846,205.684586 859.309143,204.006378 
	C882.765015,194.835510 900.598083,179.820389 909.051636,155.337936 
	C915.129700,137.735229 915.438782,119.748405 911.528870,101.718239 
	C906.143188,76.883064 892.016968,58.447002 869.264709,47.135162 
	C853.992798,39.542297 837.500610,36.772404 820.463928,36.798695 
	C770.315247,36.876068 720.166443,36.823856 670.017639,36.838757 
	C668.597290,36.839176 667.176941,37.024406 665.823181,37.118813 
	C665.823181,135.721298 665.823181,233.930389 665.823181,332.205811 
	C680.245972,332.205811 694.333496,332.205811 708.840515,332.205811 
	C708.840515,330.110199 708.840515,328.315247 708.840515,326.520264 
	C708.840515,292.865601 708.912170,259.210571 708.732117,225.556885 
	C708.713684,222.106659 709.783020,220.166641 712.813538,219.332703 
	C723.308533,216.444626 733.705505,212.161774 744.386902,211.223862 
	C762.082458,209.670029 779.969971,210.301620 798.631409,210.118668 
M1125.779663,338.824249 
	C1141.450317,339.484375 1157.033447,338.766785 1172.381470,335.335297 
	C1204.823608,328.081787 1232.782471,312.778198 1255.504028,288.350281 
	C1257.096924,286.637756 1258.375000,283.856689 1258.386719,281.565369 
	C1258.566650,246.240921 1258.514526,210.915283 1258.503906,175.589920 
	C1258.503540,174.123917 1258.381836,172.657944 1258.316895,171.196457 
	C1225.178223,171.196457 1192.358154,171.196457 1159.207153,171.196457 
	C1164.845825,184.239212 1170.372925,196.815903 1175.692017,209.479904 
	C1176.959351,212.497299 1178.546631,213.801331 1181.987305,213.603745 
	C1187.800171,213.269943 1193.646118,213.512146 1199.478149,213.512146 
	C1204.733276,213.512161 1209.988281,213.512161 1215.486572,213.512161 
	C1215.486572,231.282715 1215.525391,248.262253 1215.407593,265.240692 
	C1215.398926,266.497284 1214.587402,268.144958 1213.605835,268.938965 
	C1197.442017,282.012848 1179.107178,290.631195 1158.621460,294.032227 
	C1129.074463,298.937683 1101.201294,293.950562 1075.390503,278.415710 
	C1053.794556,265.417694 1037.795532,247.523575 1028.386475,224.064850 
	C1019.219849,201.210648 1018.983765,177.743866 1024.960938,154.155029 
	C1030.049683,134.072495 1040.335449,116.791733 1055.580322,102.813248 
	C1078.339844,81.944267 1105.521851,72.085945 1136.314941,71.801170 
	C1158.339355,71.597504 1179.121338,76.414207 1198.010498,87.818710 
	C1207.132202,93.326057 1215.548218,100.002205 1224.673096,106.423027 
	C1233.353760,96.251175 1242.451782,85.590187 1252.088623,74.297958 
	C1243.540894,67.597862 1235.908203,60.611103 1227.338989,55.073456 
	C1191.898804,32.171284 1153.117554,23.311737 1111.367188,30.249001 
	C1069.924072,37.135208 1035.162720,56.464188 1009.817993,90.330704 
	C970.780029,142.494705 969.373352,198.198410 997.173157,255.592010 
	C1007.155457,276.200867 1021.945801,293.241058 1040.392334,306.955139 
	C1065.500000,325.621368 1093.628540,336.274261 1125.779663,338.824249 
M370.826324,297.499939 
	C370.826324,309.076599 370.826324,320.653229 370.826324,332.244934 
	C446.289795,332.244934 521.055054,332.244934 595.970947,332.244934 
	C595.970947,317.871277 595.970947,303.763306 595.970947,289.122131 
	C535.224976,289.122131 474.678650,289.122131 413.841644,289.122131 
	C413.841644,264.454498 413.804596,240.319244 413.955841,216.185165 
	C413.963104,215.030716 415.393768,213.444626 416.567688,212.805801 
	C429.074646,205.999817 442.652069,203.098663 456.739960,202.902191 
	C480.722870,202.567749 504.711182,202.619766 528.697205,202.511215 
	C530.437256,202.503342 532.177429,202.510178 533.949890,202.510178 
	C533.949890,187.463303 533.949890,173.187164 533.949890,158.795578 
	C533.101868,158.676819 532.457703,158.508148 531.813354,158.507721 
	C508.649384,158.492706 485.471985,158.027878 462.327393,158.697037 
	C451.478546,159.010712 440.615570,161.117050 429.911377,163.195526 
	C424.530518,164.240341 419.490326,167.039581 414.042725,169.143295 
	C414.042725,139.496567 414.042725,110.087120 414.042725,80.178558 
	C468.960266,80.178558 523.687317,80.178558 578.499573,80.178558 
	C578.499573,65.460793 578.499573,51.244637 578.499573,37.190052 
	C509.094147,37.190052 440.030182,37.190052 370.826324,37.190052 
	C370.826324,123.869110 370.826324,210.184494 370.826324,297.499939 
M1491.316650,150.749969 
	C1462.150635,211.115097 1432.984619,271.480225 1403.498047,332.508728 
	C1416.291016,332.508728 1428.272095,331.922913 1440.161255,332.716125 
	C1447.998657,333.239044 1452.349731,330.821381 1455.139771,323.524353 
	C1458.410889,314.969391 1465.140869,309.327728 1473.082031,304.932098 
	C1489.637573,295.768188 1507.586914,290.903625 1526.213745,290.357971 
	C1562.156128,289.305145 1598.134888,289.463623 1634.099365,289.293610 
	C1635.552979,289.286713 1637.739258,290.713776 1638.360229,292.044128 
	C1644.098877,304.335693 1649.511597,316.779053 1655.192627,329.098267 
	C1655.832397,330.485809 1657.529175,332.338501 1658.759399,332.356506 
	C1674.014038,332.579559 1689.272949,332.502228 1705.204468,332.502228 
	C1703.413452,328.881744 1701.916870,325.972229 1700.520264,323.015472 
	C1680.833252,281.334106 1661.161621,239.645508 1641.481934,197.960632 
	C1628.525513,170.516449 1615.557617,143.077652 1602.603271,115.632523 
	C1590.006958,88.945961 1577.378174,62.274426 1564.888550,35.537994 
	C1563.424072,32.403049 1561.589478,31.336706 1558.114014,31.400105 
	C1545.456665,31.630997 1532.792358,31.481808 1520.130737,31.504751 
	C1518.732666,31.507284 1517.334717,31.695312 1515.407227,31.835947 
	C1520.301025,42.874908 1524.734009,53.401474 1529.656616,63.693810 
	C1531.398071,67.334831 1530.699951,70.084778 1529.097290,73.356026 
	C1516.576050,98.914291 1504.177124,124.532524 1491.316650,150.749969 
M1803.005859,244.500000 
	C1803.005859,175.396240 1803.005859,106.292480 1803.005859,37.088699 
	C1788.655884,37.088699 1774.760742,37.088699 1760.768555,37.088699 
	C1760.768555,135.582687 1760.768555,233.811157 1760.768555,332.233704 
	C1774.958130,332.233704 1788.863647,332.233704 1803.005859,332.233704 
	C1803.005859,303.135681 1803.005859,274.317841 1803.005859,244.500000 
z"/>
<path fill="#FDFDFD" opacity="1.000000" stroke="none" 
	d="
M274.853821,187.139069 
	C297.825714,212.265503 303.768402,241.610535 296.249634,273.560577 
	C290.629944,297.440796 273.946594,312.434540 251.908539,321.948425 
	C233.602768,329.851013 214.319580,332.447418 194.605469,332.481232 
	C147.126053,332.562683 99.646408,332.509644 52.166859,332.497253 
	C50.868423,332.496918 49.570030,332.341217 48.183708,332.252319 
	C48.183708,233.761063 48.183708,135.526276 48.183708,36.827915 
	C49.971603,36.827915 51.582054,36.827915 53.192505,36.827915 
	C101.005249,36.827915 148.818207,36.907272 196.630615,36.783100 
	C212.483429,36.741932 227.873489,39.107346 242.145355,45.982681 
	C263.552032,56.295147 277.510040,73.164650 282.672455,96.508545 
	C286.774994,115.059685 285.992645,133.484818 278.434082,151.248840 
	C274.259888,161.059021 267.950348,169.208832 259.079010,175.385727 
	C264.399658,179.328354 269.500946,183.108429 274.853821,187.139069 
M90.838844,264.499939 
	C90.838844,272.604553 90.838844,280.709137 90.838844,288.821869 
	C91.801369,288.989990 92.269440,289.143188 92.737549,289.143341 
	C129.380402,289.155609 166.023422,289.220123 202.666016,289.121765 
	C215.344620,289.087738 227.174881,285.690735 238.000381,278.999908 
	C259.635406,265.628082 263.135925,233.937790 244.611633,216.722931 
	C234.114548,206.967865 220.778488,203.722244 206.994736,203.305923 
	C186.196045,202.677658 165.370117,202.860657 144.555817,202.868774 
	C127.999672,202.875214 111.920227,205.598648 96.472382,211.797501 
	C92.565971,213.365051 90.511002,215.126114 90.670677,220.033585 
	C91.141640,234.508835 90.838837,249.009293 90.838844,264.499939 
M90.835220,113.499931 
	C90.835220,132.263611 90.835220,151.027283 90.835220,170.096268 
	C96.185600,167.940964 100.980064,165.785706 105.924805,164.061432 
	C118.637794,159.628281 131.885193,158.953186 145.196320,158.824661 
	C165.502213,158.628616 185.836639,158.971344 206.103546,157.967026 
	C220.502014,157.253525 232.268188,150.645859 238.279251,136.688965 
	C242.395218,127.132141 242.668762,117.035637 240.460541,106.906372 
	C237.380493,92.778107 228.075424,84.932175 214.367126,82.274834 
	C207.558243,80.954926 200.520508,80.302475 193.580597,80.258965 
	C161.097961,80.055229 128.613327,80.168495 96.129402,80.168495 
	C94.507545,80.168495 92.885689,80.168488 90.835220,80.168488 
	C90.835220,91.258858 90.835220,101.879387 90.835220,113.499931 
z"/>
<path fill="#FDFDFD" opacity="1.000000" stroke="none" 
	d="
M798.203979,210.065582 
	C779.969971,210.301620 762.082458,209.670029 744.386902,211.223862 
	C733.705505,212.161774 723.308533,216.444626 712.813538,219.332703 
	C709.783020,220.166641 708.713684,222.106659 708.732117,225.556885 
	C708.912170,259.210571 708.840515,292.865601 708.840515,326.520264 
	C708.840515,328.315247 708.840515,330.110199 708.840515,332.205811 
	C694.333496,332.205811 680.245972,332.205811 665.823181,332.205811 
	C665.823181,233.930389 665.823181,135.721298 665.823181,37.118813 
	C667.176941,37.024406 668.597290,36.839176 670.017639,36.838757 
	C720.166443,36.823856 770.315247,36.876068 820.463928,36.798695 
	C837.500610,36.772404 853.992798,39.542297 869.264709,47.135162 
	C892.016968,58.447002 906.143188,76.883064 911.528870,101.718239 
	C915.438782,119.748405 915.129700,137.735229 909.051636,155.337936 
	C900.598083,179.820389 882.765015,194.835510 859.309143,204.006378 
	C855.016846,205.684586 850.571289,206.970688 845.896057,208.538513 
	C851.538635,220.042053 856.844421,231.654083 862.864441,242.883209 
	C867.782715,252.057266 873.417969,260.859772 878.976257,269.675140 
	C888.971313,285.527222 903.787476,290.804749 921.822021,288.735809 
	C923.291199,288.567261 924.776550,288.539520 926.635437,288.422302 
	C926.635437,303.046631 926.635437,317.439758 926.635437,332.120209 
	C907.005066,332.520966 887.267029,332.457306 869.056213,323.149445 
	C854.492371,315.705658 844.335144,303.679962 837.209717,289.300079 
	C824.903748,264.465118 813.146057,239.358643 801.131409,214.379044 
	C800.420044,212.900253 799.470215,211.536148 798.203979,210.065582 
M708.838745,105.499954 
	C708.838745,129.452881 708.838745,153.405807 708.838745,177.550766 
	C709.664551,177.359695 710.171387,177.346024 710.574036,177.134277 
	C724.402039,169.863037 739.324585,167.202652 754.732971,167.037018 
	C776.051025,166.807846 797.373840,167.017960 818.691650,166.772827 
	C829.833618,166.644699 840.924927,165.674820 850.988281,160.121292 
	C866.559387,151.528214 871.382324,137.319534 871.100708,120.706673 
	C870.866638,106.892014 866.601562,95.173286 853.821228,87.591995 
	C843.670837,81.570778 832.656799,80.098747 821.324280,80.054520 
	C785.341980,79.914078 749.358826,79.999992 713.375977,80.011940 
	C711.931152,80.012421 710.486267,80.150436 708.838745,80.234741 
	C708.838745,88.547943 708.838745,96.523949 708.838745,105.499954 
z"/>
<path fill="#FCFCFC" opacity="1.000000" stroke="none" 
	d="
M1125.316650,338.743256 
	C1093.628540,336.274261 1065.500000,325.621368 1040.392334,306.955139 
	C1021.945801,293.241058 1007.155457,276.200867 997.173157,255.592010 
	C969.373352,198.198410 970.780029,142.494705 1009.817993,90.330704 
	C1035.162720,56.464188 1069.924072,37.135208 1111.367188,30.249001 
	C1153.117554,23.311737 1191.898804,32.171284 1227.338989,55.073456 
	C1235.908203,60.611103 1243.540894,67.597862 1252.088623,74.297958 
	C1242.451782,85.590187 1233.353760,96.251175 1224.673096,106.423027 
	C1215.548218,100.002205 1207.132202,93.326057 1198.010498,87.818710 
	C1179.121338,76.414207 1158.339355,71.597504 1136.314941,71.801170 
	C1105.521851,72.085945 1078.339844,81.944267 1055.580322,102.813248 
	C1040.335449,116.791733 1030.049683,134.072495 1024.960938,154.155029 
	C1018.983765,177.743866 1019.219849,201.210648 1028.386475,224.064850 
	C1037.795532,247.523575 1053.794556,265.417694 1075.390503,278.415710 
	C1101.201294,293.950562 1129.074463,298.937683 1158.621460,294.032227 
	C1179.107178,290.631195 1197.442017,282.012848 1213.605835,268.938965 
	C1214.587402,268.144958 1215.398926,266.497284 1215.407593,265.240692 
	C1215.525391,248.262253 1215.486572,231.282715 1215.486572,213.512161 
	C1209.988281,213.512161 1204.733276,213.512161 1199.478149,213.512146 
	C1193.646118,213.512146 1187.800171,213.269943 1181.987305,213.603745 
	C1178.546631,213.801331 1176.959351,212.497299 1175.692017,209.479904 
	C1170.372925,196.815903 1164.845825,184.239212 1159.207153,171.196457 
	C1192.358154,171.196457 1225.178223,171.196457 1258.316895,171.196457 
	C1258.381836,172.657944 1258.503540,174.123917 1258.503906,175.589920 
	C1258.514526,210.915283 1258.566650,246.240921 1258.386719,281.565369 
	C1258.375000,283.856689 1257.096924,286.637756 1255.504028,288.350281 
	C1232.782471,312.778198 1204.823608,328.081787 1172.381470,335.335297 
	C1157.033447,338.766785 1141.450317,339.484375 1125.316650,338.743256 
z"/>
<path fill="#FDFDFD" opacity="1.000000" stroke="none" 
	d="
M370.826324,296.999908 
	C370.826324,210.184494 370.826324,123.869110 370.826324,37.190052 
	C440.030182,37.190052 509.094147,37.190052 578.499573,37.190052 
	C578.499573,51.244637 578.499573,65.460793 578.499573,80.178558 
	C523.687317,80.178558 468.960266,80.178558 414.042725,80.178558 
	C414.042725,110.087120 414.042725,139.496567 414.042725,169.143295 
	C419.490326,167.039581 424.530518,164.240341 429.911377,163.195526 
	C440.615570,161.117050 451.478546,159.010712 462.327393,158.697037 
	C485.471985,158.027878 508.649384,158.492706 531.813354,158.507721 
	C532.457703,158.508148 533.101868,158.676819 533.949890,158.795578 
	C533.949890,173.187164 533.949890,187.463303 533.949890,202.510178 
	C532.177429,202.510178 530.437256,202.503342 528.697205,202.511215 
	C504.711182,202.619766 480.722870,202.567749 456.739960,202.902191 
	C442.652069,203.098663 429.074646,205.999817 416.567688,212.805801 
	C415.393768,213.444626 413.963104,215.030716 413.955841,216.185165 
	C413.804596,240.319244 413.841644,264.454498 413.841644,289.122131 
	C474.678650,289.122131 535.224976,289.122131 595.970947,289.122131 
	C595.970947,303.763306 595.970947,317.871277 595.970947,332.244934 
	C521.055054,332.244934 446.289795,332.244934 370.826324,332.244934 
	C370.826324,320.653229 370.826324,309.076599 370.826324,296.999908 
z"/>
<path fill="#FDFDFD" opacity="1.000000" stroke="none" 
	d="
M1491.528564,150.441116 
	C1504.177124,124.532524 1516.576050,98.914291 1529.097290,73.356026 
	C1530.699951,70.084778 1531.398071,67.334831 1529.656616,63.693810 
	C1524.734009,53.401474 1520.301025,42.874908 1515.407227,31.835947 
	C1517.334717,31.695312 1518.732666,31.507284 1520.130737,31.504751 
	C1532.792358,31.481808 1545.456665,31.630997 1558.114014,31.400105 
	C1561.589478,31.336706 1563.424072,32.403049 1564.888550,35.537994 
	C1577.378174,62.274426 1590.006958,88.945961 1602.603271,115.632523 
	C1615.557617,143.077652 1628.525513,170.516449 1641.481934,197.960632 
	C1661.161621,239.645508 1680.833252,281.334106 1700.520264,323.015472 
	C1701.916870,325.972229 1703.413452,328.881744 1705.204468,332.502228 
	C1689.272949,332.502228 1674.014038,332.579559 1658.759399,332.356506 
	C1657.529175,332.338501 1655.832397,330.485809 1655.192627,329.098267 
	C1649.511597,316.779053 1644.098877,304.335693 1638.360229,292.044128 
	C1637.739258,290.713776 1635.552979,289.286713 1634.099365,289.293610 
	C1598.134888,289.463623 1562.156128,289.305145 1526.213745,290.357971 
	C1507.586914,290.903625 1489.637573,295.768188 1473.082031,304.932098 
	C1465.140869,309.327728 1458.410889,314.969391 1455.139771,323.524353 
	C1452.349731,330.821381 1447.998657,333.239044 1440.161255,332.716125 
	C1428.272095,331.922913 1416.291016,332.508728 1403.498047,332.508728 
	C1432.984619,271.480225 1462.150635,211.115097 1491.528564,150.441116 
M1553.569824,121.382256 
	C1550.335083,127.871986 1546.942871,134.288651 1543.891846,140.863663 
	C1527.951904,175.215546 1512.091797,209.604523 1496.222168,243.988998 
	C1493.659302,249.541916 1491.188232,255.137177 1488.296143,261.552521 
	C1491.397583,259.690948 1493.435303,258.278351 1495.630371,257.180573 
	C1511.871216,249.058609 1529.483643,246.757462 1547.237549,246.143051 
	C1568.678589,245.401047 1590.154907,245.673126 1611.615967,245.509567 
	C1613.372192,245.496185 1615.128662,245.507812 1617.839722,245.507812 
	C1596.250610,203.744720 1575.109863,162.849106 1553.569824,121.382256 
z"/>
<path fill="#FCFCFC" opacity="1.000000" stroke="none" 
	d="
M1803.005859,245.000000 
	C1803.005859,274.317841 1803.005859,303.135681 1803.005859,332.233704 
	C1788.863647,332.233704 1774.958130,332.233704 1760.768555,332.233704 
	C1760.768555,233.811157 1760.768555,135.582687 1760.768555,37.088699 
	C1774.760742,37.088699 1788.655884,37.088699 1803.005859,37.088699 
	C1803.005859,106.292480 1803.005859,175.396240 1803.005859,245.000000 
z"/>
<path fill="#111111" opacity="1.000000" stroke="none" 
	d="
M90.838837,263.999908 
	C90.838837,249.009293 91.141640,234.508835 90.670677,220.033585 
	C90.511002,215.126114 92.565971,213.365051 96.472382,211.797501 
	C111.920227,205.598648 127.999672,202.875214 144.555817,202.868774 
	C165.370117,202.860657 186.196045,202.677658 206.994736,203.305923 
	C220.778488,203.722244 234.114548,206.967865 244.611633,216.722931 
	C263.135925,233.937790 259.635406,265.628082 238.000381,278.999908 
	C227.174881,285.690735 215.344620,289.087738 202.666016,289.121765 
	C166.023422,289.220123 129.380402,289.155609 92.737549,289.143341 
	C92.269440,289.143188 91.801369,288.989990 90.838844,288.821869 
	C90.838844,280.709137 90.838844,272.604553 90.838837,263.999908 
z"/>
<path fill="#131313" opacity="1.000000" stroke="none" 
	d="
M90.835220,112.999924 
	C90.835220,101.879387 90.835220,91.258858 90.835220,80.168488 
	C92.885689,80.168488 94.507545,80.168495 96.129402,80.168495 
	C128.613327,80.168495 161.097961,80.055229 193.580597,80.258965 
	C200.520508,80.302475 207.558243,80.954926 214.367126,82.274834 
	C228.075424,84.932175 237.380493,92.778107 240.460541,106.906372 
	C242.668762,117.035637 242.395218,127.132141 238.279251,136.688965 
	C232.268188,150.645859 220.502014,157.253525 206.103546,157.967026 
	C185.836639,158.971344 165.502213,158.628616 145.196320,158.824661 
	C131.885193,158.953186 118.637794,159.628281 105.924805,164.061432 
	C100.980064,165.785706 96.185600,167.940964 90.835220,170.096268 
	C90.835220,151.027283 90.835220,132.263611 90.835220,112.999924 
z"/>
<path fill="#121212" opacity="1.000000" stroke="none" 
	d="
M708.838745,104.999954 
	C708.838745,96.523949 708.838745,88.547943 708.838745,80.234741 
	C710.486267,80.150436 711.931152,80.012421 713.375977,80.011940 
	C749.358826,79.999992 785.341980,79.914078 821.324280,80.054520 
	C832.656799,80.098747 843.670837,81.570778 853.821228,87.591995 
	C866.601562,95.173286 870.866638,106.892014 871.100708,120.706673 
	C871.382324,137.319534 866.559387,151.528214 850.988281,160.121292 
	C840.924927,165.674820 829.833618,166.644699 818.691650,166.772827 
	C797.373840,167.017960 776.051025,166.807846 754.732971,167.037018 
	C739.324585,167.202652 724.402039,169.863037 710.574036,177.134277 
	C710.171387,177.346024 709.664551,177.359695 708.838745,177.550766 
	C708.838745,153.405807 708.838745,129.452881 708.838745,104.999954 
z"/>
<path fill="#141414" opacity="1.000000" stroke="none" 
	d="
M1553.769531,121.667870 
	C1575.109863,162.849106 1596.250610,203.744720 1617.839722,245.507812 
	C1615.128662,245.507812 1613.372192,245.496185 1611.615967,245.509567 
	C1590.154907,245.673126 1568.678589,245.401047 1547.237549,246.143051 
	C1529.483643,246.757462 1511.871216,249.058609 1495.630371,257.180573 
	C1493.435303,258.278351 1491.397583,259.690948 1488.296143,261.552521 
	C1491.188232,255.137177 1493.659302,249.541916 1496.222168,243.988998 
	C1512.091797,209.604523 1527.951904,175.215546 1543.891846,140.863663 
	C1546.942871,134.288651 1550.335083,127.871986 1553.769531,121.667870 
z"/>
</svg>